<?xml version="1.0" encoding="UTF-8" standalone="no"?>
<!-- Created with Inkscape (http://www.inkscape.org/) -->

<svg
   width="512"
   height="512"
   viewBox="0 0 512 512"
   version="1.1"
   id="svg5"
   xmlns="http://www.w3.org/2000/svg"
   xmlns:svg="http://www.w3.org/2000/svg">
  <defs
     id="defs2" />
  <g
     id="layer1">
    <g
       id="g3468">
      <rect
         style="fill:#212529;fill-opacity:1;stroke-width:0.5;stroke-linejoin:round;stroke-miterlimit:10"
         id="rect858"
         width="512"
         height="512"
         x="0"
         y="0"
         ry="50" />
      <g
         id="g3436"
         transform="translate(658.87249,-22.993547)">
        <path
           id="rect1108-4-9"
           style="fill:#ff577f;fill-opacity:1;stroke-width:0.702963;stroke-linejoin:round;stroke-miterlimit:10"
           d="m -423.35655,89.424594 c -2.77,0 -6.37695,1.75558 -8.08594,3.93554 l -90.54102,115.492196 v -50.42578 c 0.3543,-0.67904 0.57422,-1.43992 0.57422,-2.26172 V 96.092564 c 0,-2.7174 -2.1869,-4.9043 -4.90429,-4.9043 h -88.4043 c -2.71739,0 -4.9043,2.1869 -4.9043,4.9043 v 60.072266 c 0,2.71739 2.18691,4.9043 4.9043,4.9043 h 17.15039 v 133.89648 h -17.41797 c -2.77,0 -5,2.23 -5,5 V 361.866 c 0,2.77 2.23,5 5,5 h 88.21484 c 2.77,0 5,-2.23 5,-5 v -61.90039 c 0,-0.47845 -0.0885,-0.93161 -0.21289,-1.36914 v -50.49218 l 90.5293,115.48046 c 1.70899,2.17997 5.31594,3.93555 8.08594,3.93555 h 75.91992 c 2.77,0 3.625,-1.75558 1.91601,-3.93555 L -451.44835,228.47929 -345.52257,93.360134 c 1.70899,-2.17996 0.85594,-3.93554 -1.91406,-3.93554 z" />
        <rect
           style="fill:#ff577f;fill-opacity:1;stroke-width:0.983819;stroke-linejoin:round;stroke-miterlimit:10"
           id="rect2517"
           width="295.21991"
           height="87.403381"
           x="-509.91791"
           y="-333.21838"
           ry="5.0862937"
           transform="matrix(0.40502371,-0.91430618,1,0,0,0)" />
        <path
           id="path3350"
           style="fill:#ff577f;fill-opacity:1;stroke-width:0.513911;stroke-linejoin:round;stroke-miterlimit:10"
           d="m -282.49805,197.97656 -25.54101,65.15235 h 0.6875 l -20.14649,49.63867 -5.01172,12.78711 5.01172,-12.78711 -37.48437,92.36328 -23.74219,58.50391 -1.30078,3.20507 c -0.38702,0.95362 0.0698,1.72266 1.02344,1.72266 h 3.20507 63.70313 24.11719 c 0.95362,0 2.0329,-0.76904 2.41992,-1.72266 l 25.04297,-61.70898 c 0.38702,-0.95362 -0.0679,-1.7207 -1.02149,-1.7207 h -19.1914 l 56.93164,-140.28125 h 20.27734 c 1.08263,0 2.30672,-0.87245 2.7461,-1.95508 l 24.85546,-61.24219 c 0.43937,-1.08263 -0.0776,-1.95508 -1.16015,-1.95508 z" />
      </g>
    </g>
  </g>
</svg>
